<?xml version="1.0" encoding="UTF-8"?>
<!DOCTYPE svg PUBLIC "-//W3C//DTD SVG 1.1//EN" "http://www.w3.org/Graphics/SVG/1.1/DTD/svg11.dtd">
<!-- Creator: CorelDRAW X7 -->
<svg xmlns="http://www.w3.org/2000/svg" xml:space="preserve" width="861px" height="196px" version="1.1" style="shape-rendering:geometricPrecision; text-rendering:geometricPrecision; image-rendering:optimizeQuality; fill-rule:evenodd; clip-rule:evenodd"
viewBox="0 0 104 24"
 xmlns:xlink="http://www.w3.org/1999/xlink">
 <defs>
  <style type="text/css">
   <![CDATA[
    .fil1 {fill:red}
    .fil0 {fill:red;fill-rule:nonzero}
   ]]>
  </style>
 </defs>
 <g id="Layer_x0020_1">
  <metadata id="CorelCorpID_0Corel-Layer"/>
  <path class="fil0" d="M2 19l3 0c0,0 1,0 1,0 0,-1 0,-1 0,-1 0,-1 0,-1 0,-1 0,0 -1,0 -1,0l-3 0c0,0 0,2 0,2zm46 -12l7 -7 -4 0 -10 10 4 0 3 -3 3 3 4 0 -3 -3 -4 0 0 0zm-3 -7l-4 0 0 5 4 0 0 -5zm48 18c-1,0 -1,0 -2,1 0,0 0,0 0,1l4 0c0,-1 0,-1 -1,-1 0,-1 -1,-1 -1,-1zm2 3l1 0c0,1 0,1 0,2 0,0 -1,0 -1,0 -1,0 -1,1 -2,1 -1,0 -2,-1 -2,-1 -1,0 -1,0 -2,-1 0,0 0,-1 0,-2 0,0 0,-1 0,-1 1,-1 1,-1 2,-2 0,0 1,0 2,0 1,0 1,0 2,0 1,1 1,1 1,2 0,0 1,1 1,2l-6 0c0,0 0,0 0,0 0,1 0,1 1,1 0,0 0,0 1,0 0,0 1,0 1,0 1,0 1,0 1,-1l0 0zm-7 -4l-3 3 0 -1 4 4 -2 0 -4 -3 3 -3 2 0 0 0zm-6 -2l1 0 0 8 -1 0 0 -8zm-6 7c1,0 1,0 1,0 1,0 1,0 1,-1 0,0 1,0 1,-1 0,0 -1,0 -1,-1 0,0 0,0 -1,0 0,-1 0,-1 -1,-1 0,0 -1,0 -1,1 0,0 -1,0 -1,0 0,1 0,1 0,1 0,1 0,1 0,1 0,1 1,1 1,1 0,0 1,0 1,0l0 0zm0 2c0,0 -1,-1 -2,-1 0,0 -1,0 -1,-1 0,0 -1,-1 -1,-2 0,0 1,-1 1,-1 0,-1 1,-1 1,-2 1,0 2,0 2,0 1,0 2,0 2,0 1,1 1,1 2,2 0,0 0,1 0,1 0,1 0,2 0,2 -1,1 -1,1 -2,1 0,0 -1,1 -2,1zm-8 -2l0 0 2 -5 2 0 -3 6 -2 0 -2 -6 1 0 2 5 0 0zm-8 0c1,0 1,0 1,0 1,0 1,0 1,-1 0,0 0,0 0,-1 0,0 0,0 0,-1 0,0 0,0 -1,0 0,-1 0,-1 -1,-1 0,0 -1,0 -1,1 0,0 -1,0 -1,0 0,1 0,1 0,1 0,1 0,1 0,1 0,1 1,1 1,1 0,0 1,0 1,0l0 0zm0 2c-1,0 -1,-1 -2,-1 -1,0 -1,0 -1,-1 -1,0 -1,-1 -1,-2 0,0 0,-1 1,-1 0,-1 0,-1 1,-2 1,0 1,0 2,0 1,0 2,0 2,0 1,1 1,1 2,2 0,0 0,1 0,1 0,1 0,2 0,2 -1,1 -1,1 -2,1 0,0 -1,1 -2,1zm-5 -5c0,0 0,0 -1,0 0,0 0,0 -1,0 0,1 0,1 0,1l0 0c0,-1 0,-1 0,-1 0,0 0,0 0,-1 0,0 1,0 1,0 0,0 0,-1 1,-1 0,0 0,0 0,0l0 2 0 0zm-4 -2l2 0 0 6 -2 0 0 -6zm-8 4l0 -2 4 0c0,0 1,0 1,0 0,0 0,0 0,-1 0,0 0,-1 0,-1 0,0 -1,0 -1,0l-3 0 0 6 -2 0 0 -8 5 0c0,0 1,0 1,0 1,1 1,1 1,1 0,0 1,0 1,1 0,0 0,1 0,1 0,1 0,1 0,1 0,1 -1,1 -1,1 0,0 0,1 -1,1 0,0 -1,0 -1,0l-4 0 0 0zm-5 -6l2 0 0 8 -2 0c0,0 0,0 0,0 0,-1 0,-1 0,-1l0 -7 0 0zm-2 7c0,0 1,0 1,0 1,0 1,0 1,-1 0,0 0,0 0,-1 0,0 0,0 0,-1 0,0 -1,0 -1,0 0,-1 -1,-1 -1,-1 -1,0 -1,1 -2,1 0,0 0,1 0,1 0,1 0,1 0,1 0,1 0,1 1,1 0,0 0,0 1,0l0 0zm-1 2c0,0 -1,-1 -1,-1 -1,0 -1,0 -2,-1 0,0 0,-1 0,-2 0,0 0,-1 0,-1 1,-1 1,-1 2,-2 0,0 1,0 1,0 1,0 1,0 2,0 0,0 0,1 1,1 0,0 0,1 0,1 0,0 0,1 0,1 0,1 0,1 0,1 0,1 0,1 0,2 -1,0 -1,0 -1,0 -1,0 -1,1 -2,1l0 0zm-7 -7c1,0 1,0 1,0 1,0 1,0 1,1 0,0 0,0 1,0 0,1 0,1 0,2l0 3 -2 0 0 -3c0,-1 0,-1 0,-1 0,0 -1,-1 -1,-1 -1,0 -1,0 -2,1 0,0 0,0 0,0 -1,1 -1,1 -1,1l0 -1c0,0 0,0 0,0 1,-1 1,-1 1,-1 0,0 1,-1 1,-1 0,0 1,0 1,0l0 0zm-4 0l1 0 0 6 -1 0 0 -6zm-3 0l1 0 0 6 -1 0c0,0 0,0 0,0 0,0 0,0 0,0 0,-1 0,-1 0,-1l0 -5zm-3 5c1,0 1,0 1,0 1,0 1,0 1,-1 0,0 1,0 1,-1 0,0 -1,0 -1,-1 0,0 0,0 -1,0 0,-1 0,-1 -1,-1 -1,0 -1,1 -1,1 -1,0 -1,1 -1,1 0,1 0,1 0,1 0,1 1,1 1,1 0,0 1,0 1,0l0 0zm0 2c-1,0 -2,-1 -2,-1 -1,0 -1,0 -1,-1 -1,0 -1,-1 -1,-2 0,0 0,-1 1,-1 0,-1 0,-1 1,-2 0,0 1,0 2,0 0,0 1,0 1,1 1,0 1,0 1,1 1,0 1,1 1,1 0,1 0,1 0,1 -1,1 -1,1 -1,2 0,0 -1,0 -1,0 0,0 -1,1 -1,1l0 0zm-4 -5c-1,0 -1,0 -2,0 0,0 0,0 0,0 -1,1 -1,1 -1,1l0 0c0,-1 0,-1 0,-1 0,0 0,0 0,-1 1,0 1,0 1,0 0,0 0,-1 1,-1 0,0 0,0 1,0l0 2 0 0zm-4 -2l1 0 0 6 -1 0 0 -6zm-8 5l3 0c0,0 1,0 1,0 0,0 1,-1 1,-1 0,0 0,0 -1,-1 0,0 0,0 0,0 -1,0 -1,0 -1,0l-3 0 0 2 0 0zm-2 1l0 -8 5 0c1,0 2,1 2,1 1,0 1,1 1,1 0,1 0,1 0,2 -1,0 -1,0 -1,0 -1,0 -1,0 -2,0l0 0c1,0 1,0 1,0 1,0 1,1 1,1 1,0 1,0 1,0 0,0 0,1 0,1 0,1 0,1 0,1 0,1 -1,1 -1,1 -1,0 -1,0 -2,0l-5 0 0 0z"/>
  <path class="fil1" d="M100 13l0 0c1,0 1,0 1,0 0,0 0,0 0,0 0,0 0,-1 0,-1 0,0 0,0 0,0 0,0 0,0 -1,0l0 0 0 1zm-1 2l0 -3 1 0c1,0 1,0 1,0 0,0 1,0 1,0 0,0 0,0 0,1 0,0 0,0 0,0 -1,0 -1,1 -1,1 0,0 0,0 0,0 0,0 0,0 1,0l0 1 -1 0 0 0c0,-1 0,-1 -1,-1 0,0 0,0 0,0l0 0 0 1 -1 0zm2 -4c-1,0 -1,0 -2,0 0,0 0,1 -1,1 0,0 0,1 0,1 0,1 0,1 0,2 1,0 1,0 1,1 1,0 1,0 2,0 0,0 0,0 1,0 0,-1 1,-1 1,-1 0,-1 0,-1 0,-2 0,0 0,-1 0,-1 0,0 -1,-1 -1,-1 -1,0 -1,0 -1,0zm0 -1c0,0 1,0 1,1 1,0 1,0 1,1 1,0 1,1 1,1 0,1 0,1 -1,2 0,0 0,1 -1,1 0,0 -1,0 -1,0 -1,0 -2,0 -2,0 -1,0 -1,-1 -1,-1 0,-1 -1,-1 -1,-2 0,0 1,-1 1,-1 0,-1 1,-1 1,-1 1,-1 1,-1 2,-1z"/>
 </g>
</svg>
