<?xml version="1.0" encoding="UTF-8"?>
<!DOCTYPE svg PUBLIC "-//W3C//DTD SVG 1.1//EN" "http://www.w3.org/Graphics/SVG/1.1/DTD/svg11.dtd">
<!-- Creator: CorelDRAW X7 -->
<svg xmlns="http://www.w3.org/2000/svg" xml:space="preserve" width="1030px" height="173px" version="1.1" style="shape-rendering:geometricPrecision; text-rendering:geometricPrecision; image-rendering:optimizeQuality; fill-rule:evenodd; clip-rule:evenodd"
viewBox="0 0 208 35"
 xmlns:xlink="http://www.w3.org/1999/xlink">
 <defs>
  <style type="text/css">
   <![CDATA[
    .fil0 {fill:black}
   ]]>
  </style>
 </defs>
 <g id="Layer_x0020_1">
  <metadata id="CorelCorpID_0Corel-Layer"/>
  <path class="fil0" d="M19 23l-1 -9c0,-1 0,-2 0,-3l0 0c-1,1 -1,2 -1,2l-5 10 7 0zm152 10l1 -6c1,1 2,2 4,2 1,1 2,1 4,1 0,0 1,0 2,0 0,-1 1,-1 1,-1 1,0 1,-1 1,-1 0,0 1,-1 1,-1 0,-1 0,-1 0,-2 -1,0 -1,0 -2,-1 0,0 -1,0 -1,-1 -1,0 -2,-1 -2,-1 -2,-1 -4,-2 -5,-3 0,-2 -1,-3 0,-5 0,-2 0,-3 1,-4 1,-1 2,-2 3,-3 1,0 2,-1 4,-1 1,0 2,-1 4,-1 1,0 3,0 4,1 1,0 2,0 3,0l-1 6c-1,0 -1,0 -2,0 0,-1 -1,-1 -1,-1 -1,0 -1,0 -2,0 -1,-1 -1,-1 -2,-1 0,0 -1,1 -2,1 0,0 -1,0 -1,0 -1,0 -1,1 -1,1 0,1 -1,1 -1,1 0,1 0,1 0,2 1,0 1,0 1,1 1,0 1,0 2,1 0,0 1,0 2,1 1,0 2,1 2,1 1,1 2,1 2,2 1,1 1,1 1,2 1,1 1,2 0,3 0,2 0,3 -1,4 -1,1 -2,2 -3,3 -1,1 -2,1 -4,1 -1,1 -3,1 -4,1 -2,0 -3,0 -4,0 -2,-1 -3,-1 -4,-2zm-4 0c-2,1 -5,2 -8,2 -5,0 -8,-1 -10,-4 -2,-3 -2,-6 -1,-10 0,-5 2,-9 6,-11 3,-3 7,-5 11,-5 3,0 5,1 7,1l-2 7c-1,-1 -3,-2 -6,-2 -2,0 -4,1 -6,2 -2,2 -3,4 -4,7 0,3 0,5 1,7 1,2 3,2 6,2 2,0 5,0 7,-1l-1 5zm-20 -27l-1 5 -2 0 -3 18 2 0 -1 5 -11 0 1 -5 2 0 4 -18 -3 0 1 -5 11 0zm-14 5l-8 0 -4 23 -6 0 4 -23 -8 0 1 -5 22 0 -1 5zm-29 23l-16 0 5 -28 16 0 -1 5 -10 0 -1 6 9 0 -1 6 -9 0 -1 6 10 0 -1 5zm-33 -23l-1 8 3 0c1,0 2,-1 3,-2 1,0 2,-1 2,-3 0,-2 -1,-3 -4,-3l-3 0zm13 23l-7 0 -3 -7c0,0 0,-1 -1,-1 0,-1 0,-1 0,-2 -1,0 -1,0 -1,0 -1,0 -1,-1 -1,-1l-2 0 -2 11 -6 0 5 -28 10 0c7,0 9,2 8,8 0,1 0,2 0,2 -1,1 -1,2 -2,3 -1,0 -2,1 -2,1 -1,1 -2,1 -3,2l0 0c0,0 1,0 1,0 0,1 1,1 1,1 0,1 0,1 1,2 0,0 0,1 0,1l4 8zm-28 -12c-1,9 -6,13 -14,13 -7,0 -10,-4 -9,-13l3 -16 7 0 -3 16c-1,5 0,7 4,7 3,0 5,-2 6,-6l3 -17 6 0 -3 16zm145 -17l1 0c1,0 1,0 1,0 1,0 1,-1 1,-1 0,0 0,0 0,0 -1,0 -1,-1 -1,-1 0,0 0,0 -1,0l-1 0 0 2zm-1 3l0 -5 2 0c1,0 1,0 2,0 0,0 0,0 0,0 1,0 1,1 1,1 0,0 0,1 -1,1 0,0 0,1 -1,1 0,0 0,0 1,0 0,0 0,1 0,1l1 1 -1 0 -1 -1c0,0 0,-1 0,-1 -1,0 -1,0 -1,0l-1 0 0 2 -1 0zm3 -7c-1,0 -2,0 -3,0 0,1 -1,1 -1,2 -1,1 -1,1 -1,2 0,1 0,2 1,2 0,1 1,2 1,2 1,0 2,1 3,1 0,0 1,-1 2,-1 1,0 1,-1 1,-2 1,0 1,-1 1,-2 0,-1 0,-1 -1,-2 0,-1 -1,-1 -1,-2 -1,0 -2,0 -2,0zm0 -1c1,0 1,0 2,1 1,0 2,1 2,2 1,0 1,1 1,2 0,1 0,2 -1,3 0,1 -1,1 -2,2 -1,0 -1,0 -2,0 -1,0 -2,0 -3,0 -1,-1 -1,-1 -2,-2 0,-1 -1,-2 -1,-3 0,-1 1,-2 1,-2 1,-1 1,-2 2,-2 1,-1 2,-1 3,-1zm-176 34l-7 0 0 -6 -10 0 -3 6 -7 0 15 -28 7 0 5 28z"/>
 </g>
</svg>
