<?xml version="1.0" encoding="UTF-8"?>
<!DOCTYPE svg PUBLIC "-//W3C//DTD SVG 1.1//EN" "http://www.w3.org/Graphics/SVG/1.1/DTD/svg11.dtd">
<!-- Creator: CorelDRAW X7 -->
<svg xmlns="http://www.w3.org/2000/svg" xml:space="preserve" width="162px" height="125px" version="1.1" style="shape-rendering:geometricPrecision; text-rendering:geometricPrecision; image-rendering:optimizeQuality; fill-rule:evenodd; clip-rule:evenodd"
viewBox="0 0 168 130"
 xmlns:xlink="http://www.w3.org/1999/xlink">
 <defs>
  <style type="text/css">
   <![CDATA[
    .fil0 {fill:black}
   ]]>
  </style>
 </defs>
 <g id="Layer_x0020_1">
  <metadata id="CorelCorpID_0Corel-Layer"/>
  <g id="_324145464">
   <path class="fil0" d="M92 4c1,0 1,0 1,0l1 -1c0,0 0,0 1,-1 0,0 1,0 2,0l5 -2 1 0 0 1 2 5 1 2c0,1 0,2 -1,3 0,-1 -1,-2 -1,-2l-1 -3 -1 -4 -4 1c-1,1 -2,1 -3,1 0,0 -1,0 -1,0l-1 0c0,0 0,0 -1,0z"/>
   <polygon class="fil0" points="66,51 69,53 57,30 0,129 28,129 24,127 7,126 57,37 "/>
   <polygon class="fil0" points="43,104 86,104 83,102 50,101 98,11 96,10 95,11 "/>
   <polygon class="fil0" points="61,94 57,96 96,96 73,59 73,64 89,91 "/>
   <polygon class="fil0" points="58,53 59,48 17,123 23,121 "/>
   <path class="fil0" d="M92 100c1,0 2,1 2,3 0,1 -1,2 -2,2 -2,0 -3,-1 -3,-2 0,-2 1,-3 3,-3zm0 -1c2,0 4,1 4,4 0,2 -2,3 -4,3 -2,0 -4,-1 -4,-3 0,-3 2,-4 4,-4z"/>
   <path class="fil0" d="M98 6c2,0 3,1 3,2 0,2 -1,3 -3,3 -1,0 -2,-1 -2,-3 0,-1 1,-2 2,-2zm0 -2c2,0 4,2 4,4 0,2 -2,4 -4,4 -2,0 -4,-2 -4,-4 0,-2 2,-4 4,-4z"/>
   <path class="fil0" d="M46 129l-4 0 -1 -4 -6 0 -2 4 -4 0 9 -18 5 0 3 18zm-5 -7l-1 -6c0,0 0,-1 0,-1l0 0c0,0 0,1 -1,1l-3 6 5 0z"/>
   <path class="fil0" d="M64 122c-1,5 -4,8 -8,8 -5,0 -7,-3 -6,-8l2 -11 4 0 -2 11c-1,3 0,4 2,4 3,0 4,-1 4,-4l2 -11 4 0 -2 11zm18 7l-4 0 -2 -4c0,-1 -1,-1 -1,-1 0,0 0,-1 0,-1 0,0 -1,0 -1,0 0,0 0,-1 0,-1l-1 0 -2 7 -4 0 4 -18 6 0c4,0 6,2 5,5 0,1 0,1 0,2 0,1 -1,1 -1,1 -1,1 -1,1 -2,2 0,0 -1,0 -1,0l0 0c0,0 0,1 0,1 0,0 1,0 1,0 0,1 0,1 0,1 0,1 1,1 1,1l2 5zm-8 -15l-1 5 2 0c1,0 1,0 2,0 1,-1 1,-2 1,-2 0,-2 0,-3 -2,-3l-2 0zm21 15l-11 0 4 -18 10 0 -1 4 -6 0 -1 4 6 0 -1 3 -5 0 -1 4 6 0 0 3zm18 -14l-5 0 -2 14 -4 0 2 -14 -5 0 1 -4 14 0 -1 4zm9 -4l0 3 -2 0 -2 12 2 0 -1 3 -7 0 1 -3 1 0 2 -12 -1 0 0 -3 7 0zm13 18c-2,0 -3,1 -5,1 -3,0 -5,-1 -6,-3 -2,-1 -2,-4 -2,-6 1,-3 2,-6 4,-7 2,-2 5,-3 8,-3 1,0 3,0 4,1l-1 4c-1,-1 -2,-1 -4,-1 -1,0 -3,0 -4,1 -1,1 -2,3 -2,4 -1,2 0,4 0,5 1,1 2,1 4,1 1,0 3,0 4,-1l0 4zm3 0l0 -4c1,0 2,1 2,1 1,0 2,1 3,1 0,0 1,-1 1,-1 1,0 1,0 1,0 0,0 1,0 1,-1 0,0 0,0 0,0 0,-1 0,-1 0,-1 0,-1 0,-1 -1,-1 0,0 0,0 -1,-1 0,0 -1,0 -1,0 -1,-1 -2,-2 -3,-3 0,0 -1,-1 0,-3 0,-1 0,-1 1,-2 0,-1 1,-1 1,-2 1,0 2,-1 3,-1 1,0 2,0 3,0 0,0 1,0 2,0 1,0 1,0 2,1l-1 3c0,0 0,0 -1,0 0,0 0,0 -1,0 0,-1 0,-1 -1,-1 0,0 0,0 -1,0 0,0 -1,0 -1,0 0,0 -1,1 -1,1 0,0 -1,0 -1,0 0,0 0,1 0,1 0,0 0,1 0,1 0,0 0,0 1,1 0,0 0,0 0,0 1,0 1,1 2,1 0,0 1,0 1,1 1,0 1,0 2,1 0,0 0,1 0,1 0,1 0,2 0,2 0,1 0,2 -1,3 0,1 -1,1 -1,2 -1,0 -2,0 -3,0 -1,1 -2,1 -3,1 -1,0 -1,0 -2,-1 -1,0 -2,0 -2,0z"/>
   <path class="fil0" d="M161 101c1,0 2,0 3,1 1,0 2,1 3,2 0,1 1,2 1,4 0,1 -1,2 -1,3 -1,1 -2,2 -3,2 -1,1 -2,1 -3,1 -1,0 -2,0 -3,-1 -2,0 -2,-1 -3,-2 -1,-1 -1,-2 -1,-3 0,-2 0,-3 1,-4 1,-1 2,-2 3,-2 1,-1 2,-1 3,-1zm0 1c-1,0 -2,0 -3,1 -1,0 -1,1 -2,2 0,1 -1,2 -1,3 0,1 1,1 1,2 1,1 1,2 2,2 1,1 2,1 3,1 1,0 2,0 3,-1 1,0 1,-1 2,-2 0,-1 0,-1 0,-2 0,-1 0,-2 0,-3 -1,-1 -2,-2 -2,-2 -1,-1 -2,-1 -3,-1zm-3 9l0 -7 2 0c1,0 2,0 2,0 1,0 1,1 1,1 0,0 0,1 0,1 0,1 0,1 0,1 0,1 -1,1 -2,1 1,0 1,0 1,0 0,1 1,1 1,2l1 1 -1 0 -1 -1c-1,-1 -1,-1 -1,-2 -1,0 -1,0 -1,0l-1 0 0 3 -1 0zm1 -4l2 0c0,0 1,0 1,0 0,0 0,-1 0,-1 0,0 0,0 0,0 0,-1 0,-1 0,-1 -1,0 -1,0 -2,0l-1 0 0 2z"/>
  </g>
 </g>
</svg>
