<?xml version="1.0" encoding="UTF-8"?>
<!DOCTYPE svg PUBLIC "-//W3C//DTD SVG 1.1//EN" "http://www.w3.org/Graphics/SVG/1.1/DTD/svg11.dtd">
<!-- Creator: CorelDRAW X7 -->
<svg xmlns="http://www.w3.org/2000/svg" xml:space="preserve" width="315px" height="58px" version="1.1" style="shape-rendering:geometricPrecision; text-rendering:geometricPrecision; image-rendering:optimizeQuality; fill-rule:evenodd; clip-rule:evenodd"
viewBox="0 0 324 60"
 xmlns:xlink="http://www.w3.org/1999/xlink">
 <defs>
  <style type="text/css">
   <![CDATA[
    .fil1 {fill:#FFD500}
    .fil2 {fill:#1F1B20}
    .fil3 {fill:#252423;fill-rule:nonzero}
    .fil0 {fill:black;fill-rule:nonzero}
   ]]>
  </style>
 </defs>
 <g id="Layer_x0020_1">
  <metadata id="CorelCorpID_0Corel-Layer"/>
  <g id="_319883632">
   <path class="fil0" d="M316 6l1 0c1,0 1,0 1,0 0,0 0,-1 0,-1 0,0 0,0 0,0 0,-1 0,-1 -1,-1l-1 0 0 2zm-1 4l0 -7 2 0c1,0 2,0 2,1 0,0 1,0 1,1 0,0 0,1 -1,1 0,0 0,1 -1,1l2 3 -2 0 -1 -3 -1 0 0 3 -1 0zm2 2c1,0 2,0 3,-1 0,0 1,-1 2,-2 0,0 0,-1 0,-2 0,-2 0,-2 -1,-3 0,-1 -1,-2 -1,-2 -1,0 -2,-1 -3,-1 -1,0 -2,1 -3,1 0,0 -1,1 -1,2 -1,1 -1,1 -1,3 0,1 0,2 1,2 0,1 1,2 1,2 1,1 2,1 3,1zm0 1c-1,0 -2,0 -3,-1 -1,0 -2,-1 -3,-2 0,-1 -1,-2 -1,-3 0,-2 1,-3 1,-4 1,-1 2,-2 3,-2 1,-1 2,-1 3,-1 1,0 2,0 3,1 1,0 2,1 3,2 0,1 1,2 1,4 0,1 -1,2 -1,3 -1,1 -2,2 -3,2 -1,1 -2,1 -3,1z"/>
   <path class="fil1" d="M259 32c0,-2 1,-3 1,-4 1,-1 2,-1 3,-2l2 -1 11 0c2,0 4,-1 4,-3l0 0c0,-2 -1,-4 -3,-4l6 -4 -17 0 2 -5c0,0 1,-1 1,-2 1,0 1,-1 2,-1 1,-1 1,-1 2,-1 1,0 2,-1 2,-1l31 0 -3 7c-1,2 -2,3 -3,4l-22 13 18 0 -2 5c-1,1 -2,2 -3,3 -2,1 -3,2 -5,2l-30 0 3 -6z"/>
   <path class="fil2" d="M216 38c0,0 0,-1 0,-2 1,-1 1,-2 2,-3 0,-1 1,-3 2,-5 0,-1 1,-2 1,-3l10 0 -1 3 25 0 -1 5c-1,1 -2,2 -3,3 -2,1 -3,2 -5,2l-30 0zm8 -20c1,-2 1,-3 2,-5 0,-1 1,-2 1,-3 0,-1 1,-1 1,-1 0,-1 1,-3 3,-3 1,-1 2,-2 4,-2l30 0 -2 5c0,1 -1,3 -3,4 -1,0 -3,1 -4,1l-19 0c-1,0 -2,0 -2,1l-1 3 -10 0z"/>
   <path class="fil1" d="M209 17c0,0 1,0 1,-1l1 -2 -15 0c0,0 0,0 -1,1l-1 2 15 0zm-33 21l11 -29c1,-1 2,-2 3,-3 2,-1 3,-2 5,-2l30 0 -5 14 -7 0c-2,0 -4,1 -4,4l0 0c0,2 2,3 4,3l4 0 -3 8c-1,1 -2,2 -3,3 -2,1 -3,2 -5,2l-5 0 6 -13 -16 0 -4 10c0,1 -1,1 -1,2 -1,0 -2,1 -2,1l-8 0z"/>
   <path class="fil2" d="M136 38l11 -29c1,-1 2,-2 3,-3 2,-1 3,-2 5,-2l5 0 -10 24 26 0 -2 5c-1,1 -2,2 -3,3 -2,1 -3,2 -5,2l-30 0zm-136 0c0,0 0,-1 0,-2 1,-1 1,-2 2,-3 0,-1 1,-3 2,-5 0,-1 1,-3 2,-5 1,-2 1,-3 2,-5 1,-2 1,-3 2,-5 0,-1 1,-2 1,-3 0,-1 1,-1 1,-1 0,-1 1,-3 3,-3 1,-1 2,-2 4,-2l30 0 -2 5c0,1 -1,3 -3,4 -1,0 -3,1 -4,1l-19 0c-1,0 -2,0 -2,1l-5 13 25 0 -1 5c-1,1 -2,2 -3,3 -2,1 -3,2 -5,2l-30 0zm74 -21c0,0 0,0 1,-1l1 -2 -15 0c0,0 -1,0 -1,1l-1 2 15 0zm-33 21l11 -29c1,-1 2,-2 3,-3 1,-1 3,-2 4,-2l31 0 -12 29c0,1 -1,2 -3,3 -1,1 -2,2 -4,2l-5 0 5 -13 -15 0 -4 10c-1,1 -1,1 -2,2 0,0 -1,1 -2,1l-7 0zm83 -34l1 0c1,0 2,1 3,2 0,0 0,2 0,3l0 0c-1,3 -3,6 -4,10 -1,1 -1,3 -2,5 -1,2 -1,3 -2,4 -1,2 -1,3 -1,4 -1,1 -1,1 -1,1 -1,1 -1,2 -3,3 -1,1 -2,2 -4,2l-30 0 8 -21 10 0 -4 11 14 0c1,0 1,0 2,-1l5 -13 -15 0 -1 0 -10 0c2,-3 3,-6 4,-10l1 0 0 0 1 0 4 0 4 0 12 0 8 0zm9 5c0,-1 1,-2 3,-3 1,-1 3,-2 4,-2l5 0 -11 29c-1,1 -2,2 -3,3 -2,1 -3,2 -5,2l-5 0 12 -29z"/>
   <path class="fil1" d="M213 20l63 0c1,0 2,0 2,2l0 0c0,1 -1,1 -2,1l-63 0c-1,0 -2,0 -2,-1l0 0c0,-2 1,-2 2,-2z"/>
   <polygon class="fil1" points="151,43 290,43 283,60 144,60 "/>
   <polygon class="fil1" points="130,43 147,43 140,60 123,60 "/>
   <polygon class="fil1" points="111,43 127,43 119,60 104,60 "/>
   <polygon class="fil1" points="97,43 108,43 100,60 90,60 "/>
   <polygon class="fil1" points="85,43 93,43 86,60 78,60 "/>
   <polygon class="fil1" points="77,43 81,43 74,60 69,60 "/>
   <path class="fil3" d="M166 57l4 -9c0,-1 0,-1 0,-1 1,-1 1,-1 2,-1l10 0 -4 9c0,1 -1,1 -1,1 0,1 -1,1 -1,1l-2 0 2 -4 -5 0 -2 3c0,0 0,0 0,1 0,0 0,0 -1,0l-2 0zm10 -7c1,0 1,0 1,0l0 -1 -5 0c0,0 0,0 0,0l0 1 4 0zm7 -2c0,-1 0,-1 1,-1 0,-1 0,-1 1,-1l1 0 -3 8 5 0c0,0 0,0 0,0 0,0 0,-1 1,-1l2 -6c0,0 0,-1 1,-1 0,0 0,0 0,0l3 0 -4 9c0,1 0,1 -1,1 0,1 -1,1 -1,1l-10 0c1,-2 1,-3 2,-5 0,0 0,-1 0,-1 1,-1 1,-2 1,-2 0,0 0,-1 0,-1 1,0 1,0 1,0zm12 1l1 -1c0,-1 0,-1 1,-1 0,-1 1,-1 1,-1l10 0 -1 2c0,0 0,0 -1,1 0,0 -1,0 -1,0l-2 0 -3 6c0,1 0,1 -1,1 0,1 -1,1 -1,1l-2 0 3 -8 -4 0zm14 -1c0,-1 1,-1 1,-1 0,-1 1,-1 1,-1l10 0 -4 9c0,1 0,1 -1,1 0,1 0,1 -1,1l-10 0 4 -9zm1 6l4 0c1,0 1,0 1,0 0,0 0,-1 0,-1l2 -4 -5 0c0,0 0,0 -1,1l-1 4zm20 -6c0,-1 0,-1 0,-1 0,0 1,0 1,0 0,-1 0,-1 1,-1 0,0 0,0 0,0l2 0 -1 3c0,0 0,0 0,0l-1 1 5 0c0,0 0,0 0,0l1 -3c1,0 1,-1 1,-1 0,0 0,0 1,0l2 0 -4 9c0,1 0,1 -1,1 0,1 -1,1 -1,1l-2 0 2 -4 -5 0 -1 3c0,0 0,0 -1,1 0,0 0,0 0,0l-3 0 4 -9zm13 0c0,-1 1,-1 1,-1 1,-1 1,-1 2,-1l1 0 -3 8 5 0c0,0 0,0 0,0 0,0 0,-1 0,-1l3 -6c0,0 0,-1 0,-1 0,0 1,0 1,0l2 0 -3 9c-1,1 -1,1 -1,1 -1,1 -1,1 -2,1l-10 0c1,-2 2,-3 2,-5 1,0 1,-1 1,-1 0,-1 0,-2 1,-2 0,0 0,-1 0,-1 0,0 0,0 0,0zm13 0c0,-1 1,-1 1,-1 0,-1 1,-1 1,-1l10 0 -1 4c-1,0 -1,1 -1,1 -1,0 -1,0 -2,0l0 0c0,0 1,1 1,1 0,0 0,0 0,0 0,0 0,0 0,0 0,1 0,1 0,1l-1 2c0,1 0,1 0,1 -1,1 -1,1 -2,1l-10 0c1,-2 2,-3 2,-5l2 -4zm1 6l4 0c0,0 0,0 1,0 0,0 0,0 0,0 0,0 0,0 0,0 0,0 0,0 0,0 0,0 0,-1 0,-1 0,0 0,0 0,0 0,0 0,0 0,0l0 0 -4 0c-1,0 -1,0 -1,0l0 1zm6 -4l0 0c0,0 0,0 0,0 0,0 0,0 0,0 0,0 0,0 0,0 0,0 0,0 0,0 0,0 0,0 0,0 0,0 0,0 0,0 0,0 0,0 0,0 0,0 0,0 0,0l1 -1 -5 0c0,0 0,0 0,1l-1 0 5 0z"/>
  </g>
 </g>
</svg>
