<?xml version="1.0" encoding="UTF-8"?>
<!DOCTYPE svg PUBLIC "-//W3C//DTD SVG 1.1//EN" "http://www.w3.org/Graphics/SVG/1.1/DTD/svg11.dtd">
<!-- Creator: CorelDRAW X7 -->
<svg xmlns="http://www.w3.org/2000/svg" xml:space="preserve" width="271px" height="54px" version="1.1" style="shape-rendering:geometricPrecision; text-rendering:geometricPrecision; image-rendering:optimizeQuality; fill-rule:evenodd; clip-rule:evenodd"
viewBox="0 0 271 54"
 xmlns:xlink="http://www.w3.org/1999/xlink">
 <defs>
  <style type="text/css">
   <![CDATA[
    .fil0 {fill:black;fill-rule:nonzero}
   ]]>
  </style>
 </defs>
 <g id="Layer_x0020_1">
  <metadata id="CorelCorpID_0Corel-Layer"/>
  <path class="fil0" d="M94 54c6,0 11,0 15,-2 1,0 1,-1 1,-2l0 -4c0,0 0,-1 0,-1 -1,0 -1,-1 -2,0 -4,1 -9,2 -13,2 -6,0 -10,-2 -13,-6 0,0 0,-1 0,-1 1,-1 1,-1 2,-1l28 -4c1,0 1,-1 1,-2 0,-12 -8,-19 -20,-19 -13,0 -22,8 -22,20 0,12 9,20 23,20zm171 -34c-2,0 -3,0 -4,0 0,-1 -1,-2 -2,-3 0,-1 -1,-2 -1,-3 0,-1 1,-2 1,-3 1,-1 2,-2 2,-2 1,-1 2,-1 4,-1 1,0 2,0 3,1 1,0 2,1 2,2 1,1 1,2 1,3 0,1 0,2 -1,3 0,1 -1,2 -2,3 -1,0 -2,0 -3,0zm0 -1c1,0 2,0 2,0 1,-1 2,-1 2,-2 0,-1 1,-2 1,-3 0,-1 -1,-2 -1,-3 0,0 -1,-1 -2,-1 0,-1 -1,-1 -2,-1 -1,0 -2,0 -3,1 -1,0 -1,1 -2,1 0,1 0,2 0,3 0,1 0,2 0,3 1,1 1,1 2,2 1,0 2,0 3,0zm-3 -2l0 -6 3 0c1,0 1,0 2,0 0,1 0,1 0,2 0,0 0,0 0,1 0,0 -1,0 -1,0l1 3 -1 0 -1 -3 -2 0 0 3 -1 0zm1 -4l2 0c0,0 1,0 1,0 0,0 0,0 0,0 0,-1 0,-1 0,-1 0,0 -1,0 -1,0l-2 0 0 1zm-224 16c2,-4 6,-7 10,-7 6,0 10,4 10,11l0 19c0,1 1,1 2,1l5 0c1,0 2,0 2,-1l0 -20c0,-11 -6,-18 -15,-18 -7,0 -12,3 -15,9 0,1 0,1 0,1 1,2 1,4 1,5zm-37 24l5 0c1,0 2,0 2,-1l0 -18c0,-8 5,-12 11,-12 6,0 9,4 9,11l0 19c0,1 1,1 2,1l6 0c1,0 1,0 1,-1l0 -18c0,0 0,0 0,0 0,-6 -1,-8 -1,-8 0,0 0,0 0,0 -1,-8 -6,-12 -14,-12 -13,0 -14,10 -17,19l-1 0c0,0 2,-8 3,-12 0,0 0,0 0,0l1 -4c0,-1 0,-1 -1,-1 0,-1 0,-1 -1,-1l-5 0c-1,0 -2,1 -2,2l0 35c0,1 1,1 2,1zm235 1c13,0 23,-8 23,-20 0,-12 -10,-20 -23,-20 -13,0 -22,8 -22,20 0,12 9,20 22,20zm0 -7c-8,0 -13,-5 -13,-13 0,-7 5,-12 13,-12 8,0 14,5 14,12 0,8 -6,13 -14,13zm-37 7c4,0 8,0 12,-1 0,0 1,-1 1,-2l0 -4c0,0 0,-1 -1,-1 0,-1 -1,-1 -1,-1 -3,1 -7,2 -10,2 -9,0 -14,-5 -14,-13 0,-8 5,-12 14,-12 3,0 6,0 9,1 1,0 2,0 2,0 0,-1 1,-1 1,-2l0 -4c0,-1 -1,-2 -2,-2 -3,-1 -6,-1 -10,-1 -14,0 -24,8 -24,20 0,12 10,20 23,20zm-49 0c13,0 23,-8 23,-20 0,-12 -10,-20 -23,-20 -13,0 -22,8 -22,20 0,12 9,20 22,20zm0 -7c-8,0 -13,-5 -13,-13 0,-7 5,-12 13,-12 8,0 13,5 13,12 0,8 -5,13 -13,13zm-33 6l5 0c1,0 2,0 2,-1l0 -50c0,-1 0,-1 0,-2 -1,0 -1,0 -2,0l-5 1c-1,0 -2,1 -2,2l0 49c0,1 1,1 2,1zm-37 -22c1,-6 5,-9 12,-9 6,0 10,2 11,6 0,1 0,2 0,2 -1,0 -1,1 -2,1l-19 2c-1,1 -1,0 -2,0 0,0 0,-1 0,-2z"/>
 </g>
</svg>
