<?xml version="1.0" encoding="UTF-8"?>
<!DOCTYPE svg PUBLIC "-//W3C//DTD SVG 1.1//EN" "http://www.w3.org/Graphics/SVG/1.1/DTD/svg11.dtd">
<!-- Creator: CorelDRAW X7 -->
<svg xmlns="http://www.w3.org/2000/svg" xml:space="preserve" width="277px" height="77px" version="1.1" style="shape-rendering:geometricPrecision; text-rendering:geometricPrecision; image-rendering:optimizeQuality; fill-rule:evenodd; clip-rule:evenodd"
viewBox="0 0 277 77"
 xmlns:xlink="http://www.w3.org/1999/xlink">
 <defs>
  <style type="text/css">
   <![CDATA[
    .fil2 {fill:#413F8E;fill-rule:nonzero}
    .fil0 {fill:#7993CB;fill-rule:nonzero}
    .fil1 {fill:#E12428;fill-rule:nonzero}
   ]]>
  </style>
 </defs>
 <g id="Layer_x0020_1">
  <metadata id="CorelCorpID_0Corel-Layer"/>
  <g id="_325024448">
   <polygon class="fil0" points="43,43 0,43 0,0 43,0 "/>
   <polygon class="fil1" points="74,43 47,43 47,16 74,16 "/>
   <polygon class="fil2" points="43,63 27,63 27,47 43,47 "/>
   <path class="fil1" d="M52 76l0 -6c1,1 2,1 3,2 2,0 3,0 4,0 1,0 2,0 2,0 1,0 1,0 1,0 1,-1 1,-1 1,-1 0,0 1,-1 1,-1 0,-1 -1,-1 -1,-2 0,0 -1,0 -1,-1 -1,0 -1,0 -2,-1 -1,0 -1,0 -2,-1 -2,0 -4,-1 -5,-3 -1,-1 -1,-2 -1,-4 0,-1 0,-3 1,-4 0,-1 1,-1 2,-2 1,-1 2,-1 3,-1 1,-1 3,-1 4,-1 1,0 3,0 4,0 1,1 2,1 3,1l0 6c-1,-1 -1,-1 -2,-1 0,0 -1,-1 -1,-1 -1,0 -2,0 -2,0 -1,0 -1,0 -2,0 0,0 -1,0 -1,0 -1,0 -1,0 -2,1 0,0 0,0 -1,0 0,1 0,1 0,1 0,1 0,1 0,2 1,0 1,0 1,1 1,0 1,0 2,0 0,1 1,1 2,1 1,1 2,1 3,2 1,0 1,1 2,1 0,1 1,2 1,3 1,0 1,1 1,2 0,2 -1,3 -1,4 -1,1 -1,2 -2,2 -1,1 -2,1 -4,2 -1,0 -2,0 -4,0 -1,0 -2,0 -4,0 -1,-1 -2,-1 -3,-1z"/>
   <path class="fil1" d="M84 69l0 -1 -3 0c-2,1 -3,1 -3,3 0,0 0,1 1,1 0,1 1,1 2,1 1,0 2,0 2,-1 1,-1 1,-2 1,-3zm6 8l-6 0 0 -3 0 0c-1,2 -3,3 -5,3 -2,0 -3,0 -4,-1 -1,-1 -2,-3 -2,-5 0,-3 2,-5 6,-6l5 0c0,-2 -1,-4 -3,-4 -2,0 -4,1 -6,2l0 -4c1,0 2,-1 3,-1 1,0 3,0 4,0 5,0 8,2 8,8l0 11z"/>
   <polygon class="fil1" points="114,77 107,77 101,67 101,67 101,77 95,77 95,49 101,49 101,67 101,67 107,58 113,58 107,67 "/>
   <path class="fil1" d="M127 69l0 -1 -3 0c-2,1 -3,1 -3,3 0,0 0,1 1,1 0,1 1,1 1,1 2,0 2,0 3,-1 1,-1 1,-2 1,-3zm5 8l-5 0 0 -3 0 0c-1,2 -3,3 -6,3 -1,0 -3,0 -4,-1 -1,-1 -1,-3 -1,-5 0,-3 2,-5 6,-6l5 0c0,-2 -1,-4 -3,-4 -2,0 -5,1 -7,2l0 -4c1,0 2,-1 4,-1 1,0 2,0 4,0 5,0 7,2 7,8l0 11z"/>
   <path class="fil1" d="M150 63c-1,0 -1,0 -2,0 -2,0 -3,0 -3,1 -1,1 -1,2 -1,4l0 9 -6 0 0 -19 6 0 0 3 0 0c1,-2 2,-3 5,-3 0,0 1,0 1,0l0 5z"/>
   <path class="fil1" d="M184 77l-6 0 0 -16c0,-2 0,-3 0,-6l0 0c0,2 0,3 -1,4l-6 18 -5 0 -6 -18c0,0 0,-2 -1,-4l0 0c0,3 1,5 1,7l0 15 -6 0 0 -26 9 0 5 15c1,1 1,3 1,4l0 0c1,-2 1,-3 1,-4l6 -15 8 0 0 26z"/>
   <path class="fil1" d="M200 69l0 -1 -3 0c-2,1 -3,1 -3,3 0,0 0,1 1,1 0,1 1,1 2,1 1,0 2,0 2,-1 1,-1 1,-2 1,-3zm6 8l-6 0 0 -3 0 0c-1,2 -3,3 -5,3 -2,0 -4,0 -5,-1 -1,-1 -1,-3 -1,-5 0,-3 2,-5 6,-6l5 0c0,-2 -1,-4 -3,-4 -2,0 -4,1 -6,2l0 -4c0,0 2,-1 3,-1 1,0 3,0 4,0 5,0 8,2 8,8l0 11z"/>
   <path class="fil1" d="M223 63c0,0 -1,0 -2,0 -1,0 -2,0 -3,1 -1,1 -1,2 -1,4l0 9 -6 0 0 -19 6 0 0 3 0 0c1,-2 2,-3 5,-3 0,0 1,0 1,0l0 5z"/>
   <path class="fil1" d="M232 67l0 2c0,1 1,2 2,3 0,0 1,1 2,1 1,0 2,-1 3,-2 1,-1 1,-2 1,-4 0,-2 0,-3 -1,-4 0,-1 -1,-1 -3,-1 -1,0 -2,0 -2,1 -1,1 -2,2 -2,4zm1 7l0 0 0 3 -6 0 0 -28 6 0 0 12 0 0c1,-2 3,-3 6,-3 2,0 4,0 5,2 2,2 2,4 2,7 0,3 -1,5 -2,7 -2,2 -4,3 -6,3 -2,0 -4,-1 -5,-3z"/>
   <path class="fil1" d="M260 62c-2,0 -3,0 -3,1 -1,1 -1,3 -1,4 0,4 1,6 4,6 3,0 4,-2 4,-6 0,-3 -1,-5 -4,-5zm0 15c-3,0 -6,-1 -8,-3 -1,-1 -2,-4 -2,-7 0,-3 1,-5 2,-7 2,-2 5,-2 8,-2 3,0 5,0 7,2 2,2 3,4 3,7 0,3 -1,6 -3,7 -2,2 -4,3 -7,3z"/>
   <path class="fil2" d="M273 56c-1,0 -2,0 -2,0 -1,-1 -1,-1 -2,-2 0,-1 0,-1 0,-2 0,-1 0,-1 0,-2 1,-1 1,-1 2,-2 0,0 1,0 2,0 1,0 1,0 2,0 1,1 1,1 1,2 1,1 1,1 1,2 0,1 0,1 -1,2 0,1 0,1 -1,2 -1,0 -1,0 -2,0zm0 -1c1,0 1,0 2,0 0,0 0,-1 1,-1 0,-1 0,-1 0,-2 0,-1 0,-1 0,-2 -1,0 -1,-1 -1,-1 -1,0 -1,0 -2,0 -1,0 -1,0 -2,0 0,0 -1,1 -1,1 0,1 0,1 0,2 0,1 0,1 0,2 0,0 1,1 1,1 1,0 1,0 2,0zm-2 -1l0 -4 2 0c1,0 1,0 1,0 0,0 1,1 1,1 0,0 -1,1 -1,1 0,0 0,0 0,0l1 2 -1 0 -1 -2 -1 0 0 2 -1 0zm1 -2l1 0c0,0 0,0 1,0 0,-1 0,-1 0,-1 0,0 0,0 0,0 0,0 -1,0 -1,0l-1 0 0 1z"/>
  </g>
 </g>
</svg>
