<?xml version="1.0" encoding="UTF-8"?>
<!DOCTYPE svg PUBLIC "-//W3C//DTD SVG 1.1//EN" "http://www.w3.org/Graphics/SVG/1.1/DTD/svg11.dtd">
<!-- Creator: CorelDRAW X7 -->
<svg xmlns="http://www.w3.org/2000/svg" xml:space="preserve" width="297px" height="76px" version="1.1" style="shape-rendering:geometricPrecision; text-rendering:geometricPrecision; image-rendering:optimizeQuality; fill-rule:evenodd; clip-rule:evenodd"
viewBox="0 0 281 72"
 xmlns:xlink="http://www.w3.org/1999/xlink">
 <defs>
  <style type="text/css">
   <![CDATA[
    .fil0 {fill:black;fill-rule:nonzero}
    .fil2 {fill:url(#id0)}
    .fil1 {fill:url(#id1)}
   ]]>
  </style>
  <linearGradient id="id0" gradientUnits="userSpaceOnUse" x1="-0" y1="36.2346" x2="72.4704" y2="36.2346">
   <stop offset="0" style="stop-opacity:1; stop-color:#B57E10"/>
   <stop offset="0.160784" style="stop-opacity:1; stop-color:#F9DF7B"/>
   <stop offset="0.278431" style="stop-opacity:1; stop-color:#FFF3A6"/>
   <stop offset="0.388235" style="stop-opacity:1; stop-color:#F9DF7B"/>
   <stop offset="0.631373" style="stop-opacity:1; stop-color:#D7AF46"/>
   <stop offset="0.85098" style="stop-opacity:1; stop-color:#B57E10"/>
   <stop offset="1" style="stop-opacity:1; stop-color:#B57E10"/>
  </linearGradient>
  <linearGradient id="id1" gradientUnits="userSpaceOnUse" xlink:href="#id0" x1="85.3328" y1="36.2928" x2="278.716" y2="36.2928">
  </linearGradient>
 </defs>
 <g id="Layer_x0020_1">
  <metadata id="CorelCorpID_0Corel-Layer"/>
  <g id="_325026104">
   <path class="fil0" d="M274 11l1 0c1,0 1,0 1,0 0,0 0,0 0,-1 0,0 0,0 0,0 0,0 0,0 -1,0l-1 0 0 1zm-1 4l0 -6 2 0c1,0 2,0 2,0 0,0 0,1 0,1 0,1 0,1 0,1 0,1 0,1 -1,1l1 3 -1 0 -1 -3 -1 0 0 3 -1 0zm2 2c1,0 2,-1 3,-1 0,0 1,-1 1,-2 1,0 1,-1 1,-2 0,-1 0,-2 -1,-3 0,-1 -1,-1 -1,-1 -1,-1 -2,-1 -3,-1 -1,0 -2,0 -2,1 -1,0 -2,0 -2,1 0,1 -1,2 -1,3 0,1 1,2 1,2 0,1 1,2 2,2 0,0 1,1 2,1zm0 1c-1,0 -2,-1 -3,-1 -1,-1 -2,-1 -2,-2 -1,-1 -1,-2 -1,-3 0,-1 0,-2 1,-3 0,-1 1,-2 2,-2 1,-1 2,-1 3,-1 1,0 2,0 3,1 1,0 2,1 2,2 1,1 1,2 1,3 0,1 0,2 -1,3 0,1 -1,1 -2,2 -1,0 -2,1 -3,1z"/>
   <g>
    <path class="fil1" d="M98 54l0 -31 -13 0 0 -8 34 0 0 8 -12 0 0 31 -9 0zm30 -13l10 0 -5 -12 -5 12zm-14 13l19 -40 1 0 19 40 -9 0 -3 -6 -16 0 -2 6 -9 0zm44 3c0,-1 1,-3 1,-4 0,-1 1,-3 1,-4 -2,-2 -3,-4 -5,-7 -1,-2 -1,-5 -1,-8 0,-2 0,-4 1,-7 0,-2 1,-4 3,-5 2,-3 4,-5 7,-6 2,-2 5,-2 8,-2 3,0 5,0 7,1 2,0 4,2 6,3 2,2 4,4 5,7 2,3 2,6 2,9 0,3 0,6 -1,8 -1,3 -3,5 -5,7 -1,1 -3,3 -5,3 -3,1 -5,2 -7,2 -1,0 -2,0 -4,-1l0 0 -1 1c2,0 4,1 9,2 4,2 7,2 10,3l0 0 -22 0c-3,-1 -6,-2 -9,-2zm5 -23c0,4 1,7 3,9 2,2 5,3 7,3 3,0 6,-1 8,-3 2,-2 3,-5 3,-9 0,-3 -1,-6 -3,-8 -2,-2 -5,-4 -8,-4 -2,0 -5,2 -7,4 -2,2 -3,5 -3,8zm48 21l-16 -40 9 0 8 21 8 -22 0 0 9 22 7 -21 9 0 -16 40 -1 0 -8 -22 -8 22 -1 0zm43 -14l10 0 -5 -12 -5 12zm-15 13l20 -40 0 0 20 40 -10 0 -2 -6 -16 0 -3 6 -9 0z"/>
    <path class="fil2" d="M36 0c20,0 36,16 36,36 0,20 -16,36 -36,36 -20,0 -36,-16 -36,-36 0,-20 16,-36 36,-36zm0 30l14 0 2 0c2,0 5,1 5,4l-21 0 0 4 21 0c0,2 -3,4 -5,4l-7 0 -9 0c0,7 6,13 13,13 5,0 9,-3 12,-7l0 7c-3,2 -7,4 -12,4 -9,0 -17,-8 -17,-17l0 -38c2,3 4,6 4,10l0 10 0 6zm-8 -27l0 39c0,11 9,21 21,21 5,0 8,-1 12,-3l0 0c6,-6 9,-15 9,-24 0,-19 -15,-34 -34,-34 -3,0 -6,1 -8,1zm23 64c-1,0 -1,0 -2,0l0 0c-14,0 -25,-11 -25,-25l0 -37c-2,0 -3,1 -5,2l0 35c0,13 9,24 22,28 3,0 6,-1 10,-3z"/>
   </g>
  </g>
 </g>
</svg>
